HIERARCHY
ROOT Hips
{
	OFFSET -0.001795 -0.223333 0.028219
	CHANNELS 6 Xposition Yposition Zposition Zrotation Yrotation Xrotation 
	JOINT LeftUpLeg
	{
		OFFSET 0.069520 -0.091406 -0.006815
		CHANNELS 3 Zrotation Yrotation Xrotation
		JOINT LeftLeg
		{
			OFFSET 0.034277 -0.375199 -0.004496
			CHANNELS 3 Zrotation Yrotation Xrotation
			JOINT LeftFoot
			{
				OFFSET -0.013596 -0.397961 -0.043693
				CHANNELS 3 Zrotation Yrotation Xrotation
				JOINT LeftToe
				{
					OFFSET 0.026358 -0.055791 0.119288
					CHANNELS 3 Zrotation Yrotation Xrotation
					End Site
					{
						OFFSET 0.000000 0.000000 0.000000
					}
				}
			}
		}
	}
	JOINT RightUpLeg
	{
		OFFSET -0.067670 -0.090522 -0.004320
		CHANNELS 3 Zrotation Yrotation Xrotation
		JOINT RightLeg
		{
			OFFSET -0.038290 -0.382569 -0.008850
			CHANNELS 3 Zrotation Yrotation Xrotation
			JOINT RightFoot
			{
				OFFSET 0.015774 -0.398415 -0.042312
				CHANNELS 3 Zrotation Yrotation Xrotation
				JOINT RightToe
				{
					OFFSET -0.025372 -0.048144 0.123348
					CHANNELS 3 Zrotation Yrotation Xrotation
					End Site
					{
						OFFSET 0.000000 0.000000 0.000000
					}
				}
			}
		}
	}
	JOINT Spine
	{
		OFFSET -0.002533 0.108963 -0.026696
		CHANNELS 3 Zrotation Yrotation Xrotation
		JOINT Spine1
		{
			OFFSET 0.005487 0.135180 0.001092
			CHANNELS 3 Zrotation Yrotation Xrotation
			JOINT Spine2
			{
				OFFSET 0.001457 0.052922 0.025425
				CHANNELS 3 Zrotation Yrotation Xrotation
				JOINT Neck
				{
					OFFSET -0.002778 0.213870 -0.042857
					CHANNELS 3 Zrotation Yrotation Xrotation
					JOINT Head
					{
						OFFSET 0.005152 0.064970 0.051349
						CHANNELS 3 Zrotation Yrotation Xrotation
						End Site
						{
							OFFSET 0.000000 0.000000 0.000000
						}
					}
				}
				JOINT LeftShoulder
				{
					OFFSET 0.078845 0.121749 -0.034090
					CHANNELS 3 Zrotation Yrotation Xrotation
					JOINT LeftArm
					{
						OFFSET 0.090977 0.030469 -0.008868
						CHANNELS 3 Zrotation Yrotation Xrotation
						JOINT LeftForeArm
						{
							OFFSET 0.259612 -0.012772 -0.027456
							CHANNELS 3 Zrotation Yrotation Xrotation
							JOINT LeftHand
							{
								OFFSET 0.249234 0.008986 -0.001171
								CHANNELS 3 Zrotation Yrotation Xrotation
								End Site
								{
									OFFSET 0.000000 0.000000 0.000000
								}
							}
						}
					}
				}
				JOINT RightShoulder
				{
					OFFSET -0.081759 0.118833 -0.038615
					CHANNELS 3 Zrotation Yrotation Xrotation
					JOINT RightArm
					{
						OFFSET -0.096012 0.032551 -0.009143
						CHANNELS 3 Zrotation Yrotation Xrotation
						JOINT RightForeArm
						{
							OFFSET -0.253742 -0.013329 -0.021401
							CHANNELS 3 Zrotation Yrotation Xrotation
							JOINT RightHand
							{
								OFFSET -0.255298 0.007772 -0.005559
								CHANNELS 3 Zrotation Yrotation Xrotation
								End Site
								{
									OFFSET 0.000000 0.000000 0.000000
								}
							}
						}
					}
				}
			}
		}
	}
}
MOTION
Frames: 9
Frame Time: 0.050000
0.000000 0.945951 0.000000 -0.505025 -9.338823 1.269391 2.361764 0.374616 4.524702 -1.201540 0.217171 -2.846932 0.955795 3.373649 4.609771 0.000000 0.000000 0.000000 -5.849723 0.202268 2.171445 2.068635 -0.147261 1.135633 0.002981 -2.909494 4.926103 0.000000 0.000000 0.000000 5.415155 -0.272558 2.506590 -5.184850 1.911803 -13.053520 -1.659900 5.998036 18.534352 5.145450 -1.256430 -23.952246 0.000000 0.000000 0.000000 -12.249669 -6.098222 1.989172 -14.397456 -4.061279 -1.765068 17.883989 -5.736388 -0.629550 0.000000 0.000000 0.000000 16.143457 -4.442585 -3.293785 18.587050 -1.940285 -2.514118 -18.605920 12.622918 -1.268785 0.000000 0.000000 0.000000 
0.001521 0.944892 -0.000039 -0.686876 -10.365578 1.005177 2.144425 0.510021 5.812575 -1.038587 0.260639 -4.931362 0.893218 3.097188 4.180556 0.000000 0.000000 0.000000 -5.973260 0.215972 2.450048 2.204981 -0.169024 0.524697 -0.676494 -4.107186 4.275185 0.000000 0.000000 0.000000 5.899676 -0.323833 3.030150 -5.529765 2.043546 -12.166343 -2.007391 7.622604 17.060643 4.444698 -0.530789 -25.123557 0.000000 0.000000 0.000000 -10.864072 -6.309465 1.891904 -12.949810 -4.293020 -1.511666 16.413601 -3.946704 -0.398594 0.000000 0.000000 0.000000 15.576557 -6.609123 -4.136905 18.047344 -3.022983 -2.559637 -17.526760 12.933348 -1.165531 0.000000 0.000000 0.000000 
0.003291 0.943485 -0.000916 -0.819728 -10.748381 0.898305 2.134882 0.494221 5.582258 -0.992130 0.231062 -4.052618 1.215083 3.499404 3.263163 0.000000 0.000000 0.000000 -6.553869 0.283277 1.886776 2.948165 -0.218234 1.141694 -0.106017 -2.896646 4.323099 0.000000 0.000000 0.000000 6.755940 -0.385210 3.476534 -5.671033 1.997517 -14.815998 -2.080606 9.072666 19.755035 6.067127 -1.330881 -25.104275 0.000000 0.000000 0.000000 -8.794773 -6.315124 1.878220 -12.707898 -4.729970 -1.501138 16.583270 -2.109285 -0.230117 0.000000 0.000000 0.000000 14.869162 -6.936632 -3.975525 17.311107 -3.365317 -2.609662 -17.929258 10.273934 -0.835197 0.000000 0.000000 0.000000 
0.005452 0.942848 -0.002799 -0.711900 -11.758732 0.478402 1.320459 0.605012 6.226491 -0.888296 0.225538 -4.155554 1.240216 3.459590 2.996506 0.000000 0.000000 0.000000 -7.063854 0.344499 1.551078 3.096539 -0.207746 2.043626 0.079161 -2.900702 4.956431 0.000000 0.000000 0.000000 6.581038 -0.385120 3.668889 -5.538668 1.939130 -14.578410 -1.968197 9.877807 19.981196 5.492470 -0.875636 -25.942285 0.000000 0.000000 0.000000 -9.011851 -6.710454 2.019283 -11.154361 -4.311164 -1.355666 17.600549 -0.126583 -0.025972 0.000000 0.000000 0.000000 15.093904 -6.168665 -3.556881 15.784095 -4.606599 -2.484155 -19.779803 10.464566 -0.995216 0.000000 0.000000 0.000000 
0.008174 0.942756 -0.005849 -0.518343 -12.435510 -0.071666 0.635975 0.643364 6.214356 -0.779878 0.204650 -3.789767 1.846388 4.640580 2.777389 0.000000 0.000000 0.000000 -7.825866 0.416647 1.184286 3.143134 -0.190740 2.850673 0.088777 -3.177317 5.409094 0.000000 0.000000 0.000000 6.421118 -0.472949 4.869593 -5.447863 1.886361 -14.792380 -1.873427 10.369850 19.667931 6.350503 -1.339698 -25.884503 0.000000 0.000000 0.000000 -9.089291 -7.193827 2.207510 -10.164997 -3.756458 -1.259685 17.081457 0.128319 0.000176 0.000000 0.000000 0.000000 15.314928 -6.003911 -3.480838 13.981126 -3.543243 -2.111771 -20.530003 8.843639 -0.814943 0.000000 0.000000 0.000000 
0.011436 0.942327 -0.009756 -0.453710 -12.903087 -0.278293 0.034204 0.625006 5.791477 -0.562319 0.175531 -3.569329 2.110752 5.266377 3.298061 0.000000 0.000000 0.000000 -7.982796 0.442557 0.704424 2.929381 -0.156193 3.278271 -0.418380 -4.485983 5.773090 0.000000 0.000000 0.000000 6.289132 -0.517270 5.521942 -5.604302 1.909163 -15.439933 -1.551614 10.764394 20.666808 7.202326 -1.770613 -26.313380 0.000000 0.000000 0.000000 -9.047056 -7.840838 2.502636 -9.574312 -3.675837 -1.215184 17.629019 1.638695 0.175035 0.000000 0.000000 0.000000 14.936909 -5.188074 -2.993383 12.921250 -3.192903 -1.948573 -21.378686 7.555933 -0.669846 0.000000 0.000000 0.000000 
0.014782 0.941931 -0.014262 -0.404379 -13.432681 -0.287365 -0.537410 0.607667 5.426484 -0.077660 0.123218 -3.521484 2.235696 5.498287 3.272441 0.000000 0.000000 0.000000 -7.865074 0.454583 0.182424 2.400783 -0.078926 3.914139 -0.688577 -4.876903 5.362292 0.000000 0.000000 0.000000 6.175350 -0.563113 6.181908 -5.559467 1.898503 -14.838673 -1.349402 10.905857 20.050719 7.867563 -2.132340 -26.423663 0.000000 0.000000 0.000000 -9.044631 -7.964120 2.561057 -9.704099 -2.941704 -1.238708 17.438845 1.499376 0.161602 0.000000 0.000000 0.000000 14.774160 -4.421836 -2.628905 11.567855 -2.520914 -1.682217 -21.822396 6.660565 -0.560121 0.000000 0.000000 0.000000 
0.017906 0.940939 -0.018501 -0.411795 -13.917443 -0.321294 -0.782525 0.494220 4.401157 0.079316 0.056795 -2.135053 2.400752 5.727167 2.690340 0.000000 0.000000 0.000000 -7.356810 0.447900 -0.692227 1.457503 0.088668 5.392773 -1.197471 -5.672252 4.755049 0.000000 0.000000 0.000000 5.930316 -0.587258 6.704873 -5.400327 1.889805 -13.031863 -1.143270 10.886863 18.825304 9.486977 -2.971584 -26.757795 0.000000 0.000000 0.000000 -8.894766 -7.701350 2.451848 -10.830805 -2.313895 -1.371069 17.645020 1.557113 0.178790 0.000000 0.000000 0.000000 14.432186 -3.577480 -2.243729 11.120395 -1.542886 -1.541474 -22.507461 6.125381 -0.499551 0.000000 0.000000 0.000000 
0.019931 0.939894 -0.022068 -0.219033 -14.941061 -0.600161 -1.592967 0.425846 3.665791 0.327485 -0.025274 -0.576057 2.866877 6.511183 1.352021 0.000000 0.000000 0.000000 -7.352047 0.474981 -1.224559 0.967727 0.243090 7.079943 -1.447440 -5.868825 4.034965 0.000000 0.000000 0.000000 5.623621 -0.606405 7.360060 -5.611165 1.971126 -12.282816 -0.658478 10.974268 18.668253 9.689409 -3.095628 -27.078994 0.000000 0.000000 0.000000 -9.378906 -7.039314 2.217898 -12.140041 -1.884615 -1.560279 18.218188 1.032826 0.138034 0.000000 0.000000 0.000000 13.973412 -3.319797 -2.174510 11.534458 -0.201375 -1.526094 -23.946247 7.147655 -0.744493 0.000000 0.000000 0.000000 
